<svg xmlns="http://www.w3.org/2000/svg" xmlns:xlink="http://www.w3.org/1999/xlink" xml:space="preserve" width="512" height="512" style="enable-background:new 0 0 512 512" viewBox="0 0 510 510"><linearGradient id="c" x1="224.277" x2="336.943" y1="337.248" y2="426.581" gradientUnits="userSpaceOnUse"><stop offset="0" stop-color="#bbec6c"/><stop offset="1" stop-color="#81b823"/></linearGradient><linearGradient id="d" x1="255" x2="255" y1="336" y2="289.78" gradientUnits="userSpaceOnUse"><stop offset="0" stop-color="#47a920" stop-opacity="0"/><stop offset=".23" stop-color="#45932f" stop-opacity=".23"/><stop offset=".739" stop-color="#40694d" stop-opacity=".739"/><stop offset="1" stop-color="#3e5959"/></linearGradient><linearGradient id="a"><stop offset="0" stop-color="#47a920" stop-opacity="0"/><stop offset=".242" stop-color="#459a2a" stop-opacity=".242"/><stop offset=".7" stop-color="#417545" stop-opacity=".7"/><stop offset="1" stop-color="#3e5959"/></linearGradient><linearGradient xlink:href="#a" id="e" x1="184.985" x2="221.485" y1="367.099" y2="324.599" gradientUnits="userSpaceOnUse"/><linearGradient xlink:href="#a" id="f" x1="169.843" x2="140.343" y1="347.897" y2="293.397" gradientUnits="userSpaceOnUse"/><linearGradient xlink:href="#a" id="g" x1="4.748" x2="41.248" y1="367.099" y2="324.599" gradientTransform="matrix(-1 0 0 1 329.763 0)" gradientUnits="userSpaceOnUse"/><linearGradient xlink:href="#a" id="h" x1="339.324" x2="358.824" y1="348.576" y2="288.076" gradientUnits="userSpaceOnUse"/><linearGradient xlink:href="#a" id="i" x1="255" x2="255" y1="439.333" y2="503.333" gradientUnits="userSpaceOnUse"/><linearGradient id="j" x1="126.739" x2="336.584" y1="117.261" y2="327.106" gradientUnits="userSpaceOnUse"><stop offset="0" stop-color="#8bc727"/><stop offset="1" stop-color="#017b4e"/></linearGradient><linearGradient id="b"><stop offset="0" stop-color="#026841" stop-opacity="0"/><stop offset=".238" stop-color="#0a6644" stop-opacity=".238"/><stop offset=".608" stop-color="#20614d" stop-opacity=".608"/><stop offset="1" stop-color="#3e5959"/></linearGradient><linearGradient xlink:href="#b" id="k" x1="255" x2="255" y1="247.333" y2="342.667" gradientUnits="userSpaceOnUse"/><linearGradient xlink:href="#b" id="l" x1="334" x2="455.333" y1="155.006" y2="155.006" gradientUnits="userSpaceOnUse"/><linearGradient xlink:href="#b" id="m" x1="152.72" x2="18.719" y1="157.489" y2="220.155" gradientUnits="userSpaceOnUse"/><path fill="url(#c)" d="m393.062 311.86-29.456-30.617c-23.437 20.833-43.303 44.266-59.436 69.782-1.947 3.08-6.683 1.938-6.995-1.692l-8.671-100.808h-67.009l-8.671 100.808c-.312 3.63-5.048 4.772-6.995 1.692-16.133-25.517-35.999-48.949-59.436-69.783l-29.456 30.617c38.853 44.228 68.963 104.065 78.522 157.531 3.095 17.311 18.309 29.818 35.895 29.81 14.874-.007 32.418-.008 47.295-.002 17.583.007 32.795-12.5 35.89-29.808 9.56-53.464 39.67-113.302 78.523-157.53z" data-original="url(#SVGID_1_)"/><path fill="url(#d)" d="m296.674 343.5-8.169-94.974h-67.01l-8.169 94.974z" data-original="url(#SVGID_00000069359065812914736660000016821508752084320186_)"/><path fill="url(#e)" d="M212.824 349.333c-.312 3.63-5.048 4.772-6.995 1.692-16.133-25.517-35.999-48.949-59.436-69.782l-29.456 30.617c38.853 44.228 68.963 104.065 78.522 157.531a35.795 35.795 0 0 0 5.481 13.602z" data-original="url(#SVGID_00000173843039613637453980000010730867617643739284_)"/><path fill="url(#f)" d="M212.824 349.333c-.312 3.63-5.048 4.772-6.995 1.692-16.133-25.517-35.999-48.949-59.436-69.782l-29.456 30.617c38.853 44.228 68.963 104.065 78.522 157.531a35.795 35.795 0 0 0 5.481 13.602z" data-original="url(#SVGID_00000145760985204161657920000012804916261613062791_)"/><path fill="url(#g)" d="M297.176 349.333c.312 3.63 5.048 4.772 6.995 1.692 16.133-25.517 35.999-48.949 59.436-69.782l29.456 30.617c-38.853 44.228-68.963 104.065-78.522 157.531a35.795 35.795 0 0 1-5.481 13.602z" data-original="url(#SVGID_00000082366811817153205610000010687908710850828416_)"/><path fill="url(#h)" d="M297.176 349.333c.312 3.63 5.048 4.772 6.995 1.692 16.133-25.517 35.999-48.949 59.436-69.782l29.456 30.617c-38.853 44.228-68.963 104.065-78.522 157.531a35.795 35.795 0 0 1-5.481 13.602z" data-original="url(#SVGID_00000145024146641749443710000002199283841414863753_)"/><path fill="url(#i)" d="M170.293 393.556c11.981 25.198 20.762 51.192 25.168 75.835 3.095 17.31 18.309 29.818 35.895 29.81 14.874-.007 32.418-.008 47.295-.002 17.583.007 32.795-12.5 35.89-29.808 4.406-24.643 13.186-50.637 25.168-75.835z" data-original="url(#SVGID_00000169518228815332855330000005715419365931996310_)"/><path fill="url(#j)" d="M432.012 179.089h-.071c-3.295.003-5.765-3.047-4.945-6.238a77.974 77.974 0 0 0 2.419-21.645c-1.146-40.679-33.968-73.985-74.628-75.688a78.39 78.39 0 0 0-17.643 1.246c-2.657.494-5.248-1.224-5.796-3.871-7.341-35.448-38.725-62.094-76.348-62.094s-69.007 26.646-76.348 62.093c-.548 2.647-3.138 4.365-5.796 3.871a78.506 78.506 0 0 0-17.643-1.246c-40.66 1.704-73.481 35.009-74.628 75.688a77.97 77.97 0 0 0 2.419 21.645c.821 3.192-1.649 6.242-4.945 6.238h-.071c-43.697 0-79 35.937-77.966 79.868.984 41.805 35.405 75.713 77.22 76.104 24.137.226 45.77-10.517 60.224-27.545 1.738-2.047 4.802-2.366 6.902-.693 13.322 10.611 30.194 16.954 48.549 16.954 22.963 0 43.594-9.935 57.864-25.73a5.038 5.038 0 0 1 7.551.058c14.296 16.362 35.316 26.698 58.75 26.698 18.585 0 35.646-6.507 49.043-17.36 2.084-1.688 5.146-1.392 6.901.636 14.513 16.772 36.05 27.297 60.044 26.978 41.694-.553 75.927-34.416 76.907-76.102 1.034-43.929-34.269-79.865-77.965-79.865z" data-original="url(#SVGID_00000057845342729792688850000010479055288802281860_)"/><path fill="url(#k)" d="M6.337 226.292a77.765 77.765 0 0 0-6.315 32.665c.984 41.805 35.405 75.713 77.22 76.104 24.137.226 45.77-10.517 60.224-27.545 1.738-2.047 4.802-2.366 6.902-.693 13.322 10.611 30.194 16.954 48.549 16.954 22.963 0 43.594-9.935 57.864-25.73a5.038 5.038 0 0 1 7.551.058c14.296 16.362 35.316 26.698 58.75 26.698 18.585 0 35.646-6.507 49.043-17.36 2.084-1.688 5.147-1.392 6.901.636 14.513 16.772 36.05 27.297 60.044 26.978 41.694-.553 75.927-34.416 76.907-76.102a77.77 77.77 0 0 0-6.315-32.663z" data-original="url(#SVGID_00000111873515684278741790000006390000688573534865_)"/><path fill="url(#l)" d="M429.397 178.415c-1.883-1.071-2.989-3.278-2.401-5.564a77.974 77.974 0 0 0 2.419-21.645c-1.146-40.679-33.968-73.985-74.628-75.688a78.403 78.403 0 0 0-17.644 1.246 4.97 4.97 0 0 1-2.032-.05c-35.513 8.146-62.01 39.919-62.01 77.903 0 44.155 35.794 79.949 79.949 79.949 1.6 0 3.184-.063 4.761-.156 9.425-30.919 37.917-54.651 71.586-55.995z" data-original="url(#SVGID_00000164497358684366361070000018099055807064577977_)"/><path fill="url(#m)" d="M174.889 76.713a4.97 4.97 0 0 1-2.032.05 78.457 78.457 0 0 0-17.644-1.246c-40.66 1.704-73.481 35.009-74.628 75.688a77.97 77.97 0 0 0 2.419 21.645c.588 2.286-.517 4.494-2.401 5.564 0 0 50.646-.915 71.585 55.994 1.577.093 3.161.156 4.761.156 44.155 0 79.949-35.794 79.949-79.949.001-37.983-26.496-69.757-62.009-77.902z" data-original="url(#SVGID_00000015334864903371910250000017713820219674438824_)"/></svg>