<svg xmlns="http://www.w3.org/2000/svg">
  <symbol id="menu" viewBox="0 0 384.97 384.97">
    <path d="M12.03 120.303h360.909c6.641 0 12.03-5.39 12.03-12.03 0-6.641-5.39-12.03-12.03-12.03H12.03c-6.641 0-12.03 5.39-12.03 12.03s5.39 12.03 12.03 12.03zm360.909 60.152H12.03c-6.641 0-12.03 5.39-12.03 12.03s5.39 12.03 12.03 12.03h360.909c6.641 0 12.03-5.39 12.03-12.03s-5.389-12.03-12.03-12.03zm0 84.212H132.333c-6.641 0-12.03 5.39-12.03 12.03 0 6.641 5.39 12.03 12.03 12.03h240.606c6.641 0 12.03-5.39 12.03-12.03.001-6.641-5.389-12.03-12.03-12.03z" data-original="#000000"/>
  </symbol>
  <symbol id="close" viewBox="0 0 513.552 513.552">
    <path d="M510.132 489.755a14.215 14.215 0 0 0-1.552-1.552L276.9 256.382l231.822-231.68c5.577-5.577 5.577-14.619 0-20.196-5.577-5.577-14.619-5.577-20.196 0l-231.68 231.822L25.167 4.506c-5.577-5.577-14.619-5.577-20.196 0s-5.577 14.619 0 20.196l231.822 231.68L4.972 488.062c-5.966 5.109-6.661 14.087-1.552 20.053 5.109 5.966 14.087 6.661 20.053 1.552a14.215 14.215 0 0 0 1.552-1.552l231.822-231.68 231.68 231.822c5.109 5.966 14.087 6.661 20.053 1.552 5.966-5.11 6.661-14.088 1.552-20.054z" data-original="#000000"/>
  </symbol>
</svg>