<svg xmlns="http://www.w3.org/2000/svg" xmlns:xlink="http://www.w3.org/1999/xlink" xml:space="preserve" width="512" height="512" style="enable-background:new 0 0 512 512" viewBox="0 0 510 510"><linearGradient id="a"><stop offset="0" stop-color="#ffdc00"/><stop offset="1" stop-color="#ffab00"/></linearGradient><linearGradient xlink:href="#a" id="e" x1="338.922" x2="366.256" y1="200.315" y2="227.648" gradientUnits="userSpaceOnUse"/><linearGradient xlink:href="#a" id="f" x1="465.357" x2="487.869" y1="156.338" y2="178.851" gradientUnits="userSpaceOnUse"/><linearGradient xlink:href="#a" id="g" x1="402.535" x2="471.902" y1="228.035" y2="306.995" gradientUnits="userSpaceOnUse"/><linearGradient id="b"><stop offset="0" stop-color="#fea613" stop-opacity="0"/><stop offset="1" stop-color="#e94444"/></linearGradient><linearGradient xlink:href="#b" id="h" x1="431.416" x2="431.416" y1="264.99" y2="341.589" gradientUnits="userSpaceOnUse"/><linearGradient xlink:href="#b" id="i" x1="371.434" x2="466.925" y1="243.984" y2="339.475" gradientUnits="userSpaceOnUse"/><linearGradient id="c"><stop offset="0" stop-color="#a2e62e"/><stop offset=".123" stop-color="#97de30"/><stop offset=".34" stop-color="#79cb36"/><stop offset=".623" stop-color="#4aab3f"/><stop offset=".961" stop-color="#09804c"/><stop offset="1" stop-color="#017b4e"/></linearGradient><linearGradient xlink:href="#c" id="j" x1="20.222" x2="68.722" y1="242.085" y2="262.585" gradientUnits="userSpaceOnUse"/><linearGradient id="d"><stop offset="0" stop-color="#026841" stop-opacity="0"/><stop offset=".241" stop-color="#066743" stop-opacity=".241"/><stop offset=".517" stop-color="#146448" stop-opacity=".517"/><stop offset=".807" stop-color="#2b5e51" stop-opacity=".808"/><stop offset="1" stop-color="#3e5959"/></linearGradient><linearGradient xlink:href="#d" id="k" x1="82.128" x2="151.536" y1="145.165" y2="90.333" gradientTransform="rotate(-45 250.325 255.065)" gradientUnits="userSpaceOnUse"/><linearGradient xlink:href="#c" id="l" x1="201.522" x2="244.734" y1="65.992" y2="109.204" gradientTransform="rotate(-45 250.325 255.065)" gradientUnits="userSpaceOnUse"/><linearGradient xlink:href="#d" id="m" x1="233.666" x2="222.561" y1="66.89" y2="116.17" gradientTransform="rotate(-45 250.325 255.065)" gradientUnits="userSpaceOnUse"/><linearGradient xlink:href="#d" id="n" x1="231.057" x2="224.116" y1="59.926" y2="118.922" gradientTransform="rotate(-45 250.325 255.065)" gradientUnits="userSpaceOnUse"/><linearGradient xlink:href="#c" id="o" x1="65.256" x2="39.256" y1="169.225" y2="197.725" gradientUnits="userSpaceOnUse"/><linearGradient xlink:href="#d" id="p" x1="165.588" x2="172.529" y1="73.714" y2="101.477" gradientTransform="rotate(-45 250.325 255.065)" gradientUnits="userSpaceOnUse"/><linearGradient id="q" x1="178.531" x2="270.138" y1="323.772" y2="304.718" gradientTransform="rotate(-45 250.325 255.065)" gradientUnits="userSpaceOnUse"><stop offset="0" stop-color="#fd4755"/><stop offset=".336" stop-color="#e43f48"/><stop offset="1" stop-color="#a72b2b"/></linearGradient><linearGradient id="r" x1="226.484" x2="181.198" y1="355.786" y2="449.481" gradientTransform="rotate(-45 250.325 255.065)" gradientUnits="userSpaceOnUse"><stop offset="0" stop-color="#a72b2b" stop-opacity="0"/><stop offset="1" stop-color="#481f05"/></linearGradient><linearGradient xlink:href="#b" id="s" x1="428.182" x2="396.182" y1="321.268" y2="249.768" gradientUnits="userSpaceOnUse"/><path fill="url(#e)" d="M351.249 233.118c9.349 0 16.929-7.579 16.929-16.929 0-11.257-11.067-24.688-15.305-29.409a2.181 2.181 0 0 0-3.247 0c-4.237 4.72-15.305 18.152-15.305 29.409-.001 9.35 7.578 16.929 16.928 16.929z" data-original="url(#SVGID_1_)"/><circle cx="475.509" cy="166.491" r="16.009" fill="url(#f)" data-original="url(#SVGID_00000175287876827815991500000005387523003258173582_)"/><path fill="url(#g)" d="M494.655 254.574c-5.382-17.151-12.048-34.814-7.191-48.859.963-2.786-2.33-5.049-4.551-3.111-3.006 2.623-6.359 6.155-9.651 10.334-1.199 1.521-3.539 1.419-4.605-.197l-26.258-39.785c-5.069-7.681-16.34-7.681-21.409 0l-21.163 32.064c-.912 1.382-2.786 1.67-4.117.684-5.111-3.789-10.765-5.967-15.748-6.303-2.239-.151-3.646 2.252-2.569 4.221 7.616 13.917-13.568 52.754-13.569 71.42.052.017.106.028.158.044-2.494 36.897 26.196 72.414 67.712 72.414 34.229 0 59.736-24.145 66.241-53.299 3.065-7.109-1.198-34.507-3.28-39.627z" data-original="url(#SVGID_00000049927758142276004920000002292935801362253725_)"/><path fill="url(#h)" d="M363.824 275.041c.052.017.106.028.158.044-2.494 36.897 26.196 72.414 67.712 72.414 34.229 0 59.736-24.145 66.241-53.299 3.065-7.108-1.197-34.506-3.28-39.627-1.615-5.147-3.344-10.339-4.844-15.467H372.969c-4.241 13.301-9.145 26.953-9.145 35.935z" data-original="url(#SVGID_00000129172930920484518190000013693539520917448601_)"/><path fill="url(#i)" d="m426.335 252.634-24.917 37.754c-16.159 24.484 1.4 57.111 30.735 57.111 29.336 0 46.895-32.628 30.735-57.111l-24.917-37.754c-2.755-4.174-8.881-4.174-11.636 0z" data-original="url(#SVGID_00000129201354365925957900000009421858264806919866_)"/><path fill="url(#j)" d="M112.631 218.176c0 52.728-42.744 95.472-95.472 95.472-9.461 0-17.13-7.669-17.13-17.13 0-52.728 42.744-95.472 95.472-95.472 9.46 0 17.13 7.669 17.13 17.13z" data-original="url(#SVGID_00000008137295822760535200000001701723322611545234_)"/><path fill="url(#k)" d="M96.044 230.055c-45.899 0-84.219 32.395-93.378 75.565 3.032 4.817 8.381 8.028 14.493 8.028 45.899 0 84.219-32.395 93.378-75.565-3.031-4.817-8.381-8.028-14.493-8.028z" data-original="url(#SVGID_00000163064128541375469350000010972677596659467689_)"/><path fill="url(#l)" d="M159.746 100.338c17.383 49.78-8.879 104.226-58.658 121.61-8.932 3.119-18.701-1.593-21.82-10.525-17.383-49.78 8.879-104.226 58.658-121.61 8.932-3.119 18.701 1.593 21.82 10.525z" data-original="url(#SVGID_00000152975439017267046460000016751948778097343892_)"/><path fill="url(#m)" d="M159.746 100.338c17.383 49.78-8.879 104.226-58.658 121.61-8.932 3.119-18.701-1.593-21.82-10.525-17.383-49.78 8.879-104.226 58.658-121.61 8.932-3.119 18.701 1.593 21.82 10.525z" data-original="url(#SVGID_00000011725215462101751680000004122563322401292939_)"/><path fill="url(#n)" d="M103.284 208.443c-16.168-46.3 5.425-96.631 48.576-117.429-4.118-2.277-9.141-2.874-13.933-1.201-49.78 17.383-76.042 71.83-58.658 121.61 3.119 8.932 12.888 13.644 21.82 10.525a96.627 96.627 0 0 0 10.083-4.18c-3.559-1.968-6.442-5.185-7.888-9.325z" data-original="url(#SVGID_00000061449311369220891470000014523244894632312760_)"/><path fill="url(#o)" d="M109.28 208.155c-34.434-17.517-57.785-44.345-70.297-81.802-2.517-7.535-10.346-11.922-18.071-10.068l-9.211 2.211c-9.298 2.232-14.224 12.332-10.394 21.094 19.516 44.657 51.711 76.38 96.283 93.992 5.225 2.064 11.176.881 15.149-3.092 6.698-6.698 4.985-18.04-3.459-22.335z" data-original="url(#SVGID_00000119079439392919487340000014219335606085737882_)"/><path fill="url(#p)" d="M22.829 176.978c18.904 25.389 43.853 44.392 74.76 56.605 5.225 2.064 11.176.881 15.149-3.092 6.699-6.699 4.985-18.041-3.458-22.336-26.528-13.495-46.471-32.523-59.955-57.673z" data-original="url(#SVGID_00000060028562324622068250000006245153887907191485_)"/><path fill="url(#q)" d="M484.295 325.459c-52.232-7.404-101.824-27.988-142.697-64.486-18.865-16.845-35.126-36.75-47.673-58.664-31.808-55.556-101.487-76.645-159.143-48.824l-3.027 1.461c-90.988 43.907-92.925 173.372-2.874 219.172 48.454 24.644 101.387 40.535 157.346 45.457 71.986 6.332 143.087-6.507 206.617-37.059 26.791-12.884 20.884-52.885-8.549-57.057z" data-original="url(#SVGID_00000029728766090945250050000008935515959264490637_)"/><path fill="url(#r)" d="M282.774 186.056 108.031 360.799a125.61 125.61 0 0 0 20.85 13.319c48.454 24.644 101.387 40.535 157.346 45.457 71.986 6.332 143.087-6.507 206.617-37.059 26.79-12.884 20.883-52.885-8.55-57.057-52.232-7.404-101.824-27.988-142.697-64.486-18.865-16.845-35.126-36.75-47.673-58.664a121.376 121.376 0 0 0-11.15-16.253z" data-original="url(#SVGID_00000148644076731026742940000002272080487175655589_)"/><path fill="url(#s)" d="M431.694 347.499c20.757 0 38.296-8.888 50.346-22.379-42.272-6.31-82.748-21.305-118.2-46.438-.468 35.574 27.689 68.817 67.854 68.817z" data-original="url(#SVGID_00000065772347819708178380000006496418772937814456_)"/></svg>